# xmcd CD database file
#
# Track frame offsets:
#	150
#	28050
#	57113
#	82613
#	120788
#	150638
#	176588
#	203738
#	232688
#
# Disc length: 3634 seconds
#
# Revision: 0
# Processed by: cddbd v1.5.2PL0 Copyright (c) Steve Scherf et al.
# Submitted via: CDex 1.51
#
DISCID=570e3009
DTITLE=Marshall Gilkes Quartet - Edenderry
DYEAR=2004
DGENRE=Jazz
TTITLE0=Puddle Jumping
TTITLE1=Shady Skies
TTITLE2=Waltz
TTITLE3=Lost Path
TTITLE4=This Nearly Was Mine
TTITLE5=Gilkean
TTITLE6=Dissonancia
TTITLE7=Gummi de Milo
TTITLE8=Edenderry
EXTD=YEAR: 2004
EXTT0=
EXTT1=
EXTT2=
EXTT3=
EXTT4=
EXTT5=
EXTT6=
EXTT7=
EXTT8=
PLAYORDER=
